<mxfile host="Electron" agent="Mozilla/5.0 (Windows NT 10.0; Win64; x64) AppleWebKit/537.36 (KHTML, like Gecko) draw.io/25.0.2 Chrome/128.0.6613.186 Electron/32.2.5 Safari/537.36" version="25.0.2">
  <diagram name="Page-1" id="eVRXI3AuACHDVK-QeIrH">
    <mxGraphModel dx="2333" dy="1398" grid="1" gridSize="10" guides="1" tooltips="1" connect="1" arrows="1" fold="1" page="1" pageScale="1" pageWidth="1200" pageHeight="1920" math="0" shadow="0">
      <root>
        <mxCell id="0" />
        <mxCell id="1" parent="0" />
        <mxCell id="YQ3extNCG8ojAPRhTKHn-3" value="" style="edgeStyle=orthogonalEdgeStyle;rounded=0;orthogonalLoop=1;jettySize=auto;html=1;" edge="1" parent="1" source="YQ3extNCG8ojAPRhTKHn-1" target="YQ3extNCG8ojAPRhTKHn-2">
          <mxGeometry relative="1" as="geometry" />
        </mxCell>
        <mxCell id="YQ3extNCG8ojAPRhTKHn-1" value="เริ่ม" style="strokeWidth=2;html=1;shape=mxgraph.flowchart.terminator;whiteSpace=wrap;" vertex="1" parent="1">
          <mxGeometry x="450" y="300" width="170" height="60" as="geometry" />
        </mxCell>
        <mxCell id="YQ3extNCG8ojAPRhTKHn-5" value="" style="edgeStyle=orthogonalEdgeStyle;rounded=0;orthogonalLoop=1;jettySize=auto;html=1;" edge="1" parent="1" source="YQ3extNCG8ojAPRhTKHn-2" target="YQ3extNCG8ojAPRhTKHn-4">
          <mxGeometry relative="1" as="geometry" />
        </mxCell>
        <mxCell id="YQ3extNCG8ojAPRhTKHn-2" value="สร้าง Stack สำหรับเก็บตัวอักษรหรือตัวเลข" style="whiteSpace=wrap;html=1;strokeWidth=1;" vertex="1" parent="1">
          <mxGeometry x="412.5" y="390" width="245" height="60" as="geometry" />
        </mxCell>
        <mxCell id="YQ3extNCG8ojAPRhTKHn-7" value="" style="edgeStyle=orthogonalEdgeStyle;rounded=0;orthogonalLoop=1;jettySize=auto;html=1;" edge="1" parent="1" source="YQ3extNCG8ojAPRhTKHn-4" target="YQ3extNCG8ojAPRhTKHn-6">
          <mxGeometry relative="1" as="geometry" />
        </mxCell>
        <mxCell id="YQ3extNCG8ojAPRhTKHn-4" value="ทำการพิจารณาตัวแปร/ตัวเลข หรือเครื่องหมายในนิพจน์ infix จากซ้ายไปขวา" style="whiteSpace=wrap;html=1;strokeWidth=1;" vertex="1" parent="1">
          <mxGeometry x="425" y="500" width="220" height="60" as="geometry" />
        </mxCell>
        <mxCell id="YQ3extNCG8ojAPRhTKHn-9" value="" style="edgeStyle=orthogonalEdgeStyle;rounded=0;orthogonalLoop=1;jettySize=auto;html=1;" edge="1" parent="1" source="YQ3extNCG8ojAPRhTKHn-6" target="YQ3extNCG8ojAPRhTKHn-8">
          <mxGeometry relative="1" as="geometry" />
        </mxCell>
        <mxCell id="YQ3extNCG8ojAPRhTKHn-24" value="" style="edgeStyle=orthogonalEdgeStyle;rounded=0;orthogonalLoop=1;jettySize=auto;html=1;" edge="1" parent="1" source="YQ3extNCG8ojAPRhTKHn-6" target="YQ3extNCG8ojAPRhTKHn-10">
          <mxGeometry relative="1" as="geometry" />
        </mxCell>
        <mxCell id="YQ3extNCG8ojAPRhTKHn-6" value="พบตัวเลข หรือตัวแปร" style="rhombus;whiteSpace=wrap;html=1;" vertex="1" parent="1">
          <mxGeometry x="400" y="599.9999999999999" width="270" height="130" as="geometry" />
        </mxCell>
        <mxCell id="YQ3extNCG8ojAPRhTKHn-41" style="edgeStyle=orthogonalEdgeStyle;rounded=0;orthogonalLoop=1;jettySize=auto;html=1;" edge="1" parent="1" source="YQ3extNCG8ojAPRhTKHn-8">
          <mxGeometry relative="1" as="geometry">
            <mxPoint x="1110" y="860" as="targetPoint" />
          </mxGeometry>
        </mxCell>
        <mxCell id="YQ3extNCG8ojAPRhTKHn-8" value="ให้ push(ตัวเลข/ตัวแปร) ลงใน postfix string" style="whiteSpace=wrap;html=1;strokeWidth=1;" vertex="1" parent="1">
          <mxGeometry x="760" y="635" width="220" height="60" as="geometry" />
        </mxCell>
        <mxCell id="YQ3extNCG8ojAPRhTKHn-13" value="" style="edgeStyle=orthogonalEdgeStyle;rounded=0;orthogonalLoop=1;jettySize=auto;html=1;" edge="1" parent="1" source="YQ3extNCG8ojAPRhTKHn-10" target="YQ3extNCG8ojAPRhTKHn-12">
          <mxGeometry relative="1" as="geometry" />
        </mxCell>
        <mxCell id="YQ3extNCG8ojAPRhTKHn-25" value="" style="edgeStyle=orthogonalEdgeStyle;rounded=0;orthogonalLoop=1;jettySize=auto;html=1;" edge="1" parent="1" source="YQ3extNCG8ojAPRhTKHn-10" target="YQ3extNCG8ojAPRhTKHn-14">
          <mxGeometry relative="1" as="geometry" />
        </mxCell>
        <mxCell id="YQ3extNCG8ojAPRhTKHn-10" value="ถ้าหากเป็นวงเล็บเปิด&amp;nbsp;" style="rhombus;whiteSpace=wrap;html=1;" vertex="1" parent="1">
          <mxGeometry x="400" y="789.9999999999999" width="270" height="130" as="geometry" />
        </mxCell>
        <mxCell id="YQ3extNCG8ojAPRhTKHn-40" style="edgeStyle=orthogonalEdgeStyle;rounded=0;orthogonalLoop=1;jettySize=auto;html=1;" edge="1" parent="1" source="YQ3extNCG8ojAPRhTKHn-12">
          <mxGeometry relative="1" as="geometry">
            <mxPoint x="1110" y="1040" as="targetPoint" />
          </mxGeometry>
        </mxCell>
        <mxCell id="YQ3extNCG8ojAPRhTKHn-12" value="&#xa;&lt;span style=&quot;color: rgb(0, 0, 0); font-family: Helvetica; font-size: 12px; font-style: normal; font-variant-ligatures: normal; font-variant-caps: normal; font-weight: 400; letter-spacing: normal; orphans: 2; text-align: center; text-indent: 0px; text-transform: none; widows: 2; word-spacing: 0px; -webkit-text-stroke-width: 0px; white-space: normal; background-color: rgb(251, 251, 251); text-decoration-thickness: initial; text-decoration-style: initial; text-decoration-color: initial; display: inline !important; float: none;&quot;&gt;ให้ push ลงใน Stack&lt;/span&gt;&#xa;&#xa;" style="whiteSpace=wrap;html=1;strokeWidth=1;" vertex="1" parent="1">
          <mxGeometry x="740" y="825" width="220" height="60" as="geometry" />
        </mxCell>
        <mxCell id="YQ3extNCG8ojAPRhTKHn-17" value="" style="edgeStyle=orthogonalEdgeStyle;rounded=0;orthogonalLoop=1;jettySize=auto;html=1;" edge="1" parent="1" source="YQ3extNCG8ojAPRhTKHn-14" target="YQ3extNCG8ojAPRhTKHn-16">
          <mxGeometry relative="1" as="geometry" />
        </mxCell>
        <mxCell id="YQ3extNCG8ojAPRhTKHn-26" value="" style="edgeStyle=orthogonalEdgeStyle;rounded=0;orthogonalLoop=1;jettySize=auto;html=1;" edge="1" parent="1" source="YQ3extNCG8ojAPRhTKHn-14" target="YQ3extNCG8ojAPRhTKHn-18">
          <mxGeometry relative="1" as="geometry" />
        </mxCell>
        <mxCell id="YQ3extNCG8ojAPRhTKHn-14" value="ถ้าหากเป็นวงเล็บปิด )" style="rhombus;whiteSpace=wrap;html=1;" vertex="1" parent="1">
          <mxGeometry x="400" y="979.9999999999999" width="270" height="130" as="geometry" />
        </mxCell>
        <mxCell id="YQ3extNCG8ojAPRhTKHn-39" style="edgeStyle=orthogonalEdgeStyle;rounded=0;orthogonalLoop=1;jettySize=auto;html=1;" edge="1" parent="1" source="YQ3extNCG8ojAPRhTKHn-16">
          <mxGeometry relative="1" as="geometry">
            <mxPoint x="1110" y="1220" as="targetPoint" />
          </mxGeometry>
        </mxCell>
        <mxCell id="YQ3extNCG8ojAPRhTKHn-16" value="ให้ pop ตัวอักษรทั้งหมดออกจาก Stack ไปที่ postfix string จนกว่าจะเจอวงเล็บเปิด ( และลบวงเล็บเปิดทิ้งโดยไม่เพิ่มลงใน postfix string" style="whiteSpace=wrap;html=1;strokeWidth=1;" vertex="1" parent="1">
          <mxGeometry x="740" y="1015" width="220" height="60" as="geometry" />
        </mxCell>
        <mxCell id="YQ3extNCG8ojAPRhTKHn-21" value="" style="edgeStyle=orthogonalEdgeStyle;rounded=0;orthogonalLoop=1;jettySize=auto;html=1;" edge="1" parent="1" source="YQ3extNCG8ojAPRhTKHn-18" target="YQ3extNCG8ojAPRhTKHn-20">
          <mxGeometry relative="1" as="geometry" />
        </mxCell>
        <mxCell id="YQ3extNCG8ojAPRhTKHn-28" value="" style="edgeStyle=orthogonalEdgeStyle;rounded=0;orthogonalLoop=1;jettySize=auto;html=1;" edge="1" parent="1" source="YQ3extNCG8ojAPRhTKHn-18" target="YQ3extNCG8ojAPRhTKHn-27">
          <mxGeometry relative="1" as="geometry" />
        </mxCell>
        <mxCell id="YQ3extNCG8ojAPRhTKHn-18" value="ถ้า Stack ว่างหรือตัวอักษรที่อยู่ใน Stack เป็นวงเล็บเปิด (" style="rhombus;whiteSpace=wrap;html=1;" vertex="1" parent="1">
          <mxGeometry x="375" y="1150" width="320" height="140" as="geometry" />
        </mxCell>
        <mxCell id="YQ3extNCG8ojAPRhTKHn-36" style="edgeStyle=orthogonalEdgeStyle;rounded=0;orthogonalLoop=1;jettySize=auto;html=1;entryX=1;entryY=0.5;entryDx=0;entryDy=0;" edge="1" parent="1" source="YQ3extNCG8ojAPRhTKHn-20" target="YQ3extNCG8ojAPRhTKHn-33">
          <mxGeometry relative="1" as="geometry">
            <Array as="points">
              <mxPoint x="1110" y="1220" />
              <mxPoint x="1110" y="1600" />
            </Array>
          </mxGeometry>
        </mxCell>
        <mxCell id="YQ3extNCG8ojAPRhTKHn-20" value="ให้ push (เครื่องหมาย) นั้น ลงใน Stack." style="whiteSpace=wrap;html=1;strokeWidth=1;" vertex="1" parent="1">
          <mxGeometry x="740" y="1190" width="220" height="60" as="geometry" />
        </mxCell>
        <mxCell id="YQ3extNCG8ojAPRhTKHn-30" value="" style="edgeStyle=orthogonalEdgeStyle;rounded=0;orthogonalLoop=1;jettySize=auto;html=1;" edge="1" parent="1" source="YQ3extNCG8ojAPRhTKHn-27" target="YQ3extNCG8ojAPRhTKHn-29">
          <mxGeometry relative="1" as="geometry" />
        </mxCell>
        <mxCell id="YQ3extNCG8ojAPRhTKHn-34" value="" style="edgeStyle=orthogonalEdgeStyle;rounded=0;orthogonalLoop=1;jettySize=auto;html=1;" edge="1" parent="1" source="YQ3extNCG8ojAPRhTKHn-27" target="YQ3extNCG8ojAPRhTKHn-33">
          <mxGeometry relative="1" as="geometry" />
        </mxCell>
        <mxCell id="YQ3extNCG8ojAPRhTKHn-27" value="ถ้าตัวอักษรที่อยู่ใน Stack มีความสำคัญน้อยกว่าหรือเท่ากับเครื่องหมายปัจจุบัน" style="rhombus;whiteSpace=wrap;html=1;" vertex="1" parent="1">
          <mxGeometry x="325" y="1320" width="420" height="160" as="geometry" />
        </mxCell>
        <mxCell id="YQ3extNCG8ojAPRhTKHn-32" value="" style="edgeStyle=orthogonalEdgeStyle;rounded=0;orthogonalLoop=1;jettySize=auto;html=1;" edge="1" parent="1" source="YQ3extNCG8ojAPRhTKHn-29" target="YQ3extNCG8ojAPRhTKHn-31">
          <mxGeometry relative="1" as="geometry" />
        </mxCell>
        <mxCell id="YQ3extNCG8ojAPRhTKHn-37" style="edgeStyle=orthogonalEdgeStyle;rounded=0;orthogonalLoop=1;jettySize=auto;html=1;" edge="1" parent="1" source="YQ3extNCG8ojAPRhTKHn-29">
          <mxGeometry relative="1" as="geometry">
            <mxPoint x="1110" y="1400" as="targetPoint" />
          </mxGeometry>
        </mxCell>
        <mxCell id="YQ3extNCG8ojAPRhTKHn-29" value="ให้ pop ตัวอักษรทั้งหมดออกจาก Stack และเพิ่มลงใน postfix string จนกว่า จะเจอวงเล็บเปิด (. หรือ Stack ว่าง." style="whiteSpace=wrap;html=1;strokeWidth=1;" vertex="1" parent="1">
          <mxGeometry x="780" y="1370" width="220" height="60" as="geometry" />
        </mxCell>
        <mxCell id="YQ3extNCG8ojAPRhTKHn-38" style="edgeStyle=orthogonalEdgeStyle;rounded=0;orthogonalLoop=1;jettySize=auto;html=1;" edge="1" parent="1" source="YQ3extNCG8ojAPRhTKHn-31">
          <mxGeometry relative="1" as="geometry">
            <mxPoint x="1110" y="1510" as="targetPoint" />
          </mxGeometry>
        </mxCell>
        <mxCell id="YQ3extNCG8ojAPRhTKHn-31" value="push เครื่องหมายปัจจุบันลงใน Stack." style="whiteSpace=wrap;html=1;strokeWidth=1;" vertex="1" parent="1">
          <mxGeometry x="780" y="1480" width="220" height="60" as="geometry" />
        </mxCell>
        <mxCell id="YQ3extNCG8ojAPRhTKHn-33" value="หากยังมีตัวอักษรที่อยู่ใน Stack ให้ pop ข้อมูลที่อยู่ใน stack ออกมาทั้งหมดและเพิ่มลง ใน postfix string." style="whiteSpace=wrap;html=1;strokeWidth=1;" vertex="1" parent="1">
          <mxGeometry x="425" y="1570" width="220" height="60" as="geometry" />
        </mxCell>
        <mxCell id="YQ3extNCG8ojAPRhTKHn-46" value="" style="edgeStyle=orthogonalEdgeStyle;rounded=0;orthogonalLoop=1;jettySize=auto;html=1;" edge="1" parent="1" source="YQ3extNCG8ojAPRhTKHn-42" target="YQ3extNCG8ojAPRhTKHn-45">
          <mxGeometry relative="1" as="geometry" />
        </mxCell>
        <mxCell id="YQ3extNCG8ojAPRhTKHn-42" value="เริ่ม" style="strokeWidth=2;html=1;shape=mxgraph.flowchart.terminator;whiteSpace=wrap;fontSize=16;" vertex="1" parent="1">
          <mxGeometry x="505" y="2030" width="170" height="60" as="geometry" />
        </mxCell>
        <mxCell id="YQ3extNCG8ojAPRhTKHn-44" value="Postfix to infix" style="text;html=1;align=center;verticalAlign=middle;resizable=0;points=[];autosize=1;strokeColor=none;fillColor=none;fontSize=18;fontStyle=1" vertex="1" parent="1">
          <mxGeometry x="525" y="1973" width="130" height="40" as="geometry" />
        </mxCell>
        <mxCell id="YQ3extNCG8ojAPRhTKHn-48" value="" style="edgeStyle=orthogonalEdgeStyle;rounded=0;orthogonalLoop=1;jettySize=auto;html=1;" edge="1" parent="1" source="YQ3extNCG8ojAPRhTKHn-45" target="YQ3extNCG8ojAPRhTKHn-47">
          <mxGeometry relative="1" as="geometry" />
        </mxCell>
        <mxCell id="YQ3extNCG8ojAPRhTKHn-45" value="scan postfix จาก ซ้ายไปขวา" style="whiteSpace=wrap;html=1;strokeWidth=1;" vertex="1" parent="1">
          <mxGeometry x="480" y="2130" width="220" height="60" as="geometry" />
        </mxCell>
        <mxCell id="YQ3extNCG8ojAPRhTKHn-50" value="" style="edgeStyle=orthogonalEdgeStyle;rounded=0;orthogonalLoop=1;jettySize=auto;html=1;" edge="1" parent="1" source="YQ3extNCG8ojAPRhTKHn-47" target="YQ3extNCG8ojAPRhTKHn-49">
          <mxGeometry relative="1" as="geometry" />
        </mxCell>
        <mxCell id="YQ3extNCG8ojAPRhTKHn-52" value="" style="edgeStyle=orthogonalEdgeStyle;rounded=0;orthogonalLoop=1;jettySize=auto;html=1;" edge="1" parent="1" source="YQ3extNCG8ojAPRhTKHn-47" target="YQ3extNCG8ojAPRhTKHn-51">
          <mxGeometry relative="1" as="geometry" />
        </mxCell>
        <mxCell id="YQ3extNCG8ojAPRhTKHn-47" value="เจอตัวแปร/ตัวเลข" style="rhombus;whiteSpace=wrap;html=1;" vertex="1" parent="1">
          <mxGeometry x="455" y="2220" width="270" height="130" as="geometry" />
        </mxCell>
        <mxCell id="YQ3extNCG8ojAPRhTKHn-49" value="push ลง stack" style="whiteSpace=wrap;html=1;strokeWidth=1;" vertex="1" parent="1">
          <mxGeometry x="760" y="2255" width="220" height="60" as="geometry" />
        </mxCell>
        <mxCell id="YQ3extNCG8ojAPRhTKHn-54" value="" style="edgeStyle=orthogonalEdgeStyle;rounded=0;orthogonalLoop=1;jettySize=auto;html=1;" edge="1" parent="1" source="YQ3extNCG8ojAPRhTKHn-51" target="YQ3extNCG8ojAPRhTKHn-53">
          <mxGeometry relative="1" as="geometry" />
        </mxCell>
        <mxCell id="YQ3extNCG8ojAPRhTKHn-67" value="" style="edgeStyle=orthogonalEdgeStyle;rounded=0;orthogonalLoop=1;jettySize=auto;html=1;" edge="1" parent="1" source="YQ3extNCG8ojAPRhTKHn-51" target="YQ3extNCG8ojAPRhTKHn-66">
          <mxGeometry relative="1" as="geometry" />
        </mxCell>
        <mxCell id="YQ3extNCG8ojAPRhTKHn-51" value="ถ้าเจอ operator" style="rhombus;whiteSpace=wrap;html=1;" vertex="1" parent="1">
          <mxGeometry x="455" y="2390" width="270" height="130" as="geometry" />
        </mxCell>
        <mxCell id="YQ3extNCG8ojAPRhTKHn-56" value="" style="edgeStyle=orthogonalEdgeStyle;rounded=0;orthogonalLoop=1;jettySize=auto;html=1;" edge="1" parent="1" source="YQ3extNCG8ojAPRhTKHn-53" target="YQ3extNCG8ojAPRhTKHn-55">
          <mxGeometry relative="1" as="geometry" />
        </mxCell>
        <mxCell id="YQ3extNCG8ojAPRhTKHn-53" value="pop 2 อัน" style="whiteSpace=wrap;html=1;strokeWidth=1;" vertex="1" parent="1">
          <mxGeometry x="760" y="2425" width="220" height="60" as="geometry" />
        </mxCell>
        <mxCell id="YQ3extNCG8ojAPRhTKHn-58" value="" style="edgeStyle=orthogonalEdgeStyle;rounded=0;orthogonalLoop=1;jettySize=auto;html=1;" edge="1" parent="1" source="YQ3extNCG8ojAPRhTKHn-55" target="YQ3extNCG8ojAPRhTKHn-57">
          <mxGeometry relative="1" as="geometry" />
        </mxCell>
        <mxCell id="YQ3extNCG8ojAPRhTKHn-55" value="ครั้งแรกเก็บที่ o1 ครั้งที่2 o2" style="whiteSpace=wrap;html=1;strokeWidth=1;" vertex="1" parent="1">
          <mxGeometry x="760" y="2520" width="220" height="60" as="geometry" />
        </mxCell>
        <mxCell id="YQ3extNCG8ojAPRhTKHn-60" value="" style="edgeStyle=orthogonalEdgeStyle;rounded=0;orthogonalLoop=1;jettySize=auto;html=1;" edge="1" parent="1" source="YQ3extNCG8ojAPRhTKHn-57" target="YQ3extNCG8ojAPRhTKHn-59">
          <mxGeometry relative="1" as="geometry" />
        </mxCell>
        <mxCell id="YQ3extNCG8ojAPRhTKHn-57" value="สร้าง สตริงใหม่ เท่ากับ o1 + operator + o2" style="whiteSpace=wrap;html=1;strokeWidth=1;" vertex="1" parent="1">
          <mxGeometry x="760" y="2660" width="220" height="60" as="geometry" />
        </mxCell>
        <mxCell id="YQ3extNCG8ojAPRhTKHn-61" style="edgeStyle=orthogonalEdgeStyle;rounded=0;orthogonalLoop=1;jettySize=auto;html=1;" edge="1" parent="1" source="YQ3extNCG8ojAPRhTKHn-59">
          <mxGeometry relative="1" as="geometry">
            <mxPoint x="590" y="2100" as="targetPoint" />
            <Array as="points">
              <mxPoint x="330" y="2830" />
              <mxPoint x="330" y="2100" />
            </Array>
          </mxGeometry>
        </mxCell>
        <mxCell id="YQ3extNCG8ojAPRhTKHn-59" value="push string ใหม่หลับเข้าstack" style="whiteSpace=wrap;html=1;strokeWidth=1;" vertex="1" parent="1">
          <mxGeometry x="760" y="2800" width="220" height="60" as="geometry" />
        </mxCell>
        <mxCell id="YQ3extNCG8ojAPRhTKHn-66" value="จบ" style="strokeWidth=2;html=1;shape=mxgraph.flowchart.terminator;whiteSpace=wrap;" vertex="1" parent="1">
          <mxGeometry x="505" y="2700" width="170" height="60" as="geometry" />
        </mxCell>
      </root>
    </mxGraphModel>
  </diagram>
</mxfile>
